<svg id="Capa_1" data-name="Capa 1" xmlns="http://www.w3.org/2000/svg" viewBox="0 0 278.68 151.21"><defs><style>.cls-1{fill:#fff;}</style></defs><title>on-LOGO</title><path class="cls-1" d="M169.28,26.16c-.19.19-.38.43-.54.59l-7.64,7.62a1.64,1.64,0,0,0-.19.19.56.56,0,0,0,0,.78,26.23,26.23,0,0,1,3.56,10.48,27.7,27.7,0,0,1-21.69,30.29,28.33,28.33,0,0,1-8.91.38,26.6,26.6,0,0,1-13.28-5.25,27.1,27.1,0,0,1-10.7-16.81,27.26,27.26,0,0,1,6.51-23.66,27.49,27.49,0,0,1,22.86-9.12,28.18,28.18,0,0,1,11.59,3.62c.47.28.64.09.92-.19l7.57-7.59a9,9,0,0,0,.59-.69c3.1,3.15,6.18,6.23,9.31,9.36M152,49.61a15.06,15.06,0,1,0-15,14.56,15.06,15.06,0,0,0,15-14.56M163.68,111c0,7.45,0,14.93,0,22.39v1H150.35v-.92c0-7.81.05-15.64,0-23.44a14.11,14.11,0,0,0-4.42-10.54,12.54,12.54,0,0,0-7.13-3.36,12.77,12.77,0,0,0-9.73,2.51,13.21,13.21,0,0,0-5.15,8.73,32.07,32.07,0,0,0-.33,5.2c0,6.93,0,13.82,0,20.78v1H110.35v-.85c0-8.42-.1-16.86.05-25.28a25.09,25.09,0,0,1,3.85-12.56A25.78,25.78,0,0,1,131,83.38a27.25,27.25,0,0,1,7-.64,26.48,26.48,0,0,1,25.09,22.51,31.76,31.76,0,0,1,.54,5.76"/></svg>