<svg id="Capa_1" data-name="Capa 1" xmlns="http://www.w3.org/2000/svg" viewBox="0 0 278.68 151.21"><defs><style>.cls-1{fill:#fff;fill-rule:evenodd;}</style></defs><title>prada-LOGO</title><path class="cls-1" d="M21.39,57.89,25,61.77v28.4l-2.65,3.72,16.19,0-2.92-3.42-.3-10.23,15.6.09c4.73-1.52,9.59-4.77,9.83-11.32C60.63,62.69,56.62,58.61,52,57.8l-30.57.09ZM34.7,59.7V78l12,.08c2.73-2.12,4.79-3.74,4.71-8.83,0-4.15-1-7.77-5-9.5Z"/><path class="cls-1" d="M68.2,57.68l3.56,3.88V90l-2.64,3.72,16.18,0-2.91-3.43-.31-10.22h.07L98.87,93.82l13.87-.11L100.08,83.14H89.51l-3.73-3.06,11.91.06c4.73-1.52,9.59-4.76,9.82-11.31-.07-6.35-4.09-10.42-8.75-11.23l-30.56.08ZM81.51,59.5V77.74l12,.09c2.72-2.12,4.79-3.75,4.7-8.84,0-4.15-.94-7.77-5-9.49Z"/><path class="cls-1" d="M126.1,57.64h14l18.16,32.53c.79,2.51,3.14,2.2,4.71,3.3H145.34l2.64-.79-.16-2.43-4.55-7-15.43.08-3.31,6.77c-.11.77-1,1.35-.33,2.31l1.24,1.16-7.6-.17,3.31-1,12.46-25.35V65.32l-5.26-6.78-2.25-.9ZM128.81,81l6.41-11.72,6.68,11.66L128.81,81Z"/><path class="cls-1" d="M220.46,57.71h13.95l18.17,32.53c.78,2.51,3.14,2.2,4.71,3.3H239.7l2.64-.79-.16-2.43-4.55-7-15.44.08-3.3,6.77c-.11.77-1,1.35-.33,2.31l1.24,1.16-7.6-.17,3.31-1L228,67.12V65.39l-5.26-6.78-2.25-.9Zm2.71,23.36,6.41-11.72L236.26,81l-13.09.06Z"/><path class="cls-1" d="M167.75,57.3l24.86.13c8,1.81,13.1,6.53,14.68,14.77l-.07,6.42C205.76,86,201,91,192.54,93.58l-24.92.07v-.78c3.78-.27,4.09-.69,4.1-2.86V60.74c0-1.6-.38-2.6-4-2.71l.06-.73Zm14.13,2.51,0,31.65c3.28,0,6.12.31,7.73-.48,3.64-1.6,5.33-4.07,5.48-6.38L195,65.9c0-3-3.37-5.1-5.31-5.65-1.39-.5-4.16-.52-7.8-.44Z"/></svg>