<svg id="Capa_1" data-name="Capa 1" xmlns="http://www.w3.org/2000/svg" viewBox="0 0 278.68 151.21"><defs><style>.cls-1{fill:#fff;}</style></defs><title>vans-LOGO</title><polygon class="cls-1" points="93.07 36.61 108.06 36.61 83.51 113.94 65.04 113.94 40 37.01 55.14 37.06 74.72 96.17 93.07 36.61"/><rect class="cls-1" x="93.11" y="36.5" width="139.09" height="13.31"/><path class="cls-1" d="M110.45,113.85H96.92l15.14-52.4h14l15.15,52.4H127.44L125.83,107H112.06Zm13.08-17.94L119,77.11l-4.36,18.8Z"/><polygon class="cls-1" points="158.88 61.45 174.02 89.93 173.56 77.97 173.56 61.45 186.87 61.45 186.87 113.85 173.79 113.85 158.64 85.37 159.33 97.33 159.33 113.85 146.02 113.85 146.02 61.45 158.88 61.45"/><path class="cls-1" d="M230,76.54H216.93a3.79,3.79,0,0,0-2.06-3.42A4.76,4.76,0,0,0,211.42,72q-4.59,0-4.59,3.14,0,2.85,8.27,5.41,16.05,4.84,16.06,16.52-.47,17.37-19.74,17.66-16.75-.85-18.81-17.09h13.31a8.06,8.06,0,0,0,2.29,4.27,6.56,6.56,0,0,0,3.9,1.14q6,0,6-3.7,0-3.14-8-5.41-16.31-4.85-16.3-17.09.47-16.24,18.13-16.81Q227.95,60.31,230,76.54Z"/></svg>