<svg id="Capa_1" data-name="Capa 1" xmlns="http://www.w3.org/2000/svg" viewBox="0 0 278.68 151.21"><defs><style>.cls-1{fill:#fff;fill-rule:evenodd;}</style></defs><title>celine-LOGO</title><path class="cls-1" d="M214.09,89.85V78.43h12.53V72.6H214.09V63.54h15.53V57.71H207.68v38h23.55V89.85Zm-17.63,7.3,0-39.49H190.1l.1,25L162.05,56.6,162,95.68h6.41l-.1-24Zm-45.69-1.47v-38h-6.41v38Zm-36.71,0h22.29V89.85H120.47V57.66h-6.42Zm-33.17,0h23.55V89.85H87.3V78.43H99.83V72.6H87.3V63.54h15.53V57.71H80.89ZM43.41,76.47c0-7.24,5-13.83,13.53-13.83a15,15,0,0,1,10.42,4l3.41-4.48c-1.26-1.51-6.07-5.38-13.83-5.38-12,0-20.34,9.16-20.34,19.82,0,10.92,8.77,20,21,20A18.68,18.68,0,0,0,71,91.51l-3-4.17c-1.5,1.51-5.36,3.47-10.12,3.47A14.09,14.09,0,0,1,43.41,76.47Z"/></svg>