<svg id="Capa_1" data-name="Capa 1" xmlns="http://www.w3.org/2000/svg" viewBox="0 0 278.68 151.21"><defs><style>.cls-1{fill:#fff;fill-rule:evenodd;}</style></defs><title>new-balance-LOGO</title><polygon class="cls-1" points="124.48 71.96 102.97 72.73 123.39 73.86 124.48 71.96 124.48 71.96 124.48 71.96"/><polygon class="cls-1" points="121.91 76.48 100.34 77.25 120.84 78.39 121.91 76.48 121.91 76.48 121.91 76.48"/><polygon class="cls-1" points="119.33 81.04 97.8 81.8 118.27 82.94 119.33 81.04 119.33 81.04 119.33 81.04"/><polygon class="cls-1" points="116.81 85.58 95.25 86.34 115.7 87.48 116.81 85.58 116.81 85.58 116.81 85.58"/><polygon class="cls-1" points="143.17 49.15 115.71 50.13 143.25 51.66 143.17 49.15 143.17 49.15 143.17 49.15"/><polygon class="cls-1" points="142.99 44.66 118.33 45.53 143.07 46.95 142.99 44.66 142.99 44.66 142.99 44.66"/><polygon class="cls-1" points="142.82 40.34 120.84 41.06 142.92 42.28 142.82 40.34 142.82 40.34 142.82 40.34"/><polygon class="cls-1" points="142.67 35.89 123.41 36.54 142.75 37.68 142.67 35.89 142.67 35.89 142.67 35.89"/><polygon class="cls-1" points="142.55 32.3 125.79 32.3 142.57 33.19 142.55 32.3 142.55 32.3 142.55 32.3"/><polygon class="cls-1" points="114.21 90.11 92.7 90.89 113.77 90.89 114.21 90.11 114.21 90.11 114.21 90.11"/><path class="cls-1" d="M187.11,32.45h-31L155.23,34l15.51.83h0c.18,0,.18.25-.08.25h0l-16.33.55-1.58,2.76,15.41.91h0c.2,0,.15.31,0,.31h0l-16.36.54-1.53,2.64,15.38.85h0c.34,0,.34.31,0,.31h0l-16.33.57-1.56,2.77,15.33.88h0c.34,0,.31.33,0,.33h0l-16.33.58-1.58,2.73,15.35.85h0c.24,0,.26.31-.05.31h0l-47.07,1.58L158.05,57h0c.28,0,.26.36-.05.36h0l-47.16,1.68,44.68,2.49h0c.2,0,.25.33-.06.33h0L108.23,63.6l44.67,2.48h0c.19,0,.37.36,0,.39h0l-47.16,1.68,44.68,2.48h0c.13,0,.26.36-.05.36h0l-23.74.85.08,2.14,21.15,1.17h0c.15,0,.23.34-.05.34h0l-21,.75.1,2.39,18.36,1h0a.2.2,0,0,1-.06.39h0l-18.2.64.08,2.63,15.64.87h0a.18.18,0,1,1-.07.36h0l-15.49.55.1,2.89,12.93.72h0a.17.17,0,0,1-.08.34h0l-12.8.46.06,1.24h41.72c11.07,0,21-8.06,22.86-14.47s1.86-12.21-7-15.1c5-1.14,13.6-6.74,15.31-14.48,1.55-7-1-14.22-13.08-14.24Zm-21,44.9H153.3l7.24-12.83h9.51c9.82,0,5.07,12.83-3.93,12.83Zm16.59-27.51c-.41,1.55-3.51,5.48-7.44,5.48h-9.51l6.1-10.75h4.86c6.2.2,6.41,3.72,6,5.27Z"/><path class="cls-1" d="M234.08,109.33a9.2,9.2,0,0,0-9.1-9.13,9.35,9.35,0,0,0-9.26,9.42,9.25,9.25,0,0,0,9.29,9.29,9,9,0,0,0,8.42-6.1h-4.71a4.21,4.21,0,0,1-3.84,2.16,4.91,4.91,0,0,1-4.65-3.51h13.62a12.51,12.51,0,0,0,.23-2.13Zm-14-1.25a5,5,0,0,1,4.93-4,4.85,4.85,0,0,1,4.84,4h-9.77Z"/><path class="cls-1" d="M172.91,101.06v1.45h0a7.34,7.34,0,0,0-5.41-2.28,8.87,8.87,0,0,0-8.61,9.13c0,4.87,3.5,9.24,8.7,9.24a6.8,6.8,0,0,0,5.68-2.4h0v2.29h3.93V101.06ZM168.1,114.9a5.41,5.41,0,1,1,5.41-5.41,5.41,5.41,0,0,1-5.41,5.41Z"/><path class="cls-1" d="M55.57,100.2A6,6,0,0,0,51,102.32h0v-1.71H47v17.88h4.29v-8.42h0c0-2.29.19-5.94,3.36-5.94,3,0,3.29,3.42,3.29,5.62h0v8.74h4.29v-9.58h0a10.64,10.64,0,0,0-.87-5.13,6.5,6.5,0,0,0-5.78-3.58Z"/><path class="cls-1" d="M82.24,109.33a9.2,9.2,0,0,0-9.1-9.13,9.35,9.35,0,0,0-9.26,9.42,9.25,9.25,0,0,0,9.29,9.29,9,9,0,0,0,8.42-6.1H76.88A4.21,4.21,0,0,1,73,115a4.91,4.91,0,0,1-4.65-3.51H82a12.51,12.51,0,0,0,.23-2.13Zm-14-1.25a5,5,0,0,1,4.93-4,4.85,4.85,0,0,1,4.84,4H68.27Z"/><polygon class="cls-1" points="152.84 118.48 157.13 118.48 157.13 94.63 152.84 94.63 152.84 118.48 152.84 118.48 152.84 118.48"/><path class="cls-1" d="M188.53,100.2a6,6,0,0,0-4.62,2.12h0v-1.71h-4v17.88h4.29v-8.42h0c0-2.29.2-5.94,3.36-5.94,3,0,3.29,3.42,3.29,5.62h0v8.74h4.29v-9.58h0a10.52,10.52,0,0,0-.87-5.13,6.49,6.49,0,0,0-5.77-3.58Z"/><path class="cls-1" d="M205.88,104.13a4.24,4.24,0,0,1,4.16,2.45h4.84A9.23,9.23,0,0,0,206,100.2a9.35,9.35,0,0,0-9.42,9.29,9.46,9.46,0,0,0,9.42,9.42,9.59,9.59,0,0,0,7-3.13,7.87,7.87,0,0,0,1.8-3.16H210a4.51,4.51,0,0,1-3.9,2.35,5.19,5.19,0,0,1-5.23-5.42c0-3.13,2.13-5.42,5-5.42Z"/><polygon class="cls-1" points="98.64 111.52 95.6 100.62 92.15 100.62 89.07 111.52 85.44 100.62 81.65 100.62 87.62 118.49 90.37 118.49 93.86 106.91 97.24 118.49 100.13 118.49 105.85 100.62 102.3 100.62 98.64 111.52 98.64 111.52 98.64 111.52"/><path class="cls-1" d="M121.63,100.21a7.4,7.4,0,0,0-5.42,2.28h0V94.63h-4.29v23.85h3.94v-2.3h0a6.78,6.78,0,0,0,5.68,2.41c5.19,0,8.7-4.37,8.7-9.25a8.87,8.87,0,0,0-8.61-9.13ZM121,114.9a5.41,5.41,0,1,1,5.41-5.41A5.41,5.41,0,0,1,121,114.9Z"/><path class="cls-1" d="M145.68,101.06v1.45h0a7.34,7.34,0,0,0-5.41-2.28,8.87,8.87,0,0,0-8.61,9.13c0,4.87,3.5,9.24,8.7,9.24a6.8,6.8,0,0,0,5.68-2.4h0v2.29H150V101.06Zm-4.81,13.84a5.41,5.41,0,1,1,5.41-5.41,5.41,5.41,0,0,1-5.41,5.41Z"/></svg>