<svg id="Capa_1" data-name="Capa 1" xmlns="http://www.w3.org/2000/svg" viewBox="0 0 225.95 125.13"><defs><style>.cls-1{fill:#fff;fill-rule:evenodd;}</style></defs><title>dolce-gabbana-LOGO</title><path class="cls-1" d="M20.69,25.25H40.58a87.62,87.62,0,0,1,14.06,1.1,27.1,27.1,0,0,1,13,6,32.59,32.59,0,0,1,8.87,12.3A41.77,41.77,0,0,1,80,60a4.77,4.77,0,0,1,.14,1.15v1.94a43.81,43.81,0,0,1-3.44,16,31,31,0,0,1-9.4,12.61,28.48,28.48,0,0,1-11.73,5.2,81.18,81.18,0,0,1-12.74,1.46H20.69V25.25ZM35.24,85.18c.48,0,1,0,1.59,0s1.19,0,1.81,0h1.19a6.08,6.08,0,0,0,1.27.13h1.2c.7,0,1.41,0,2.11-.08s1.41-.09,2.16-.14A34.12,34.12,0,0,0,52.88,84a15.51,15.51,0,0,0,5.34-2.78,18.42,18.42,0,0,0,5.29-8,32.1,32.1,0,0,0,1.85-10.45v-1.5a32.67,32.67,0,0,0-1.81-10.37,19.81,19.81,0,0,0-5.11-8.2,13,13,0,0,0-5.69-3.17,28.74,28.74,0,0,0-6.62-1,8.37,8.37,0,0,0-1.5-.14H35.24V85.18Zm85.87,12-4.46-5.25a23.85,23.85,0,0,1-6.57,4.32,22.5,22.5,0,0,1-7.58,2,4.36,4.36,0,0,1-.8.09h-.79c-.57,0-1.1,0-1.68-.09s-1.1-.13-1.67-.18a22.37,22.37,0,0,1-3.31-.92,17,17,0,0,1-3.13-1.5,13.94,13.94,0,0,1-4.32-4.85,16.4,16.4,0,0,1-2-6.22,5,5,0,0,1,0-.75V82.62a3.66,3.66,0,0,0,0-.66c0-.09,0-.13,0-.17a.55.55,0,0,0,0-.27c0-.09,0-.22,0-.39a1,1,0,0,0,0-.36A14.11,14.11,0,0,1,89,73a45,45,0,0,1,7-5.52A25.53,25.53,0,0,1,92,62a12.28,12.28,0,0,1-1.58-6,6.62,6.62,0,0,1,.08-1.23c0-.4.09-.84.14-1.19s.13-.57.22-.84.17-.57.22-.84a9.84,9.84,0,0,1,5.11-6,17.77,17.77,0,0,1,17.82,1,9.47,9.47,0,0,1,4.46,8.47v.93a10.34,10.34,0,0,1-2.61,6,39.9,39.9,0,0,1-4.85,4.54,6.41,6.41,0,0,0-1.14.75c-.36.26-.71.53-1.06.75l9,10.45c.49-.44.93-.88,1.37-1.32a16,16,0,0,0,1.23-1.37c.93-.88,1.81-1.81,2.69-2.73s1.72-1.9,2.52-2.87l6,6.31c-.66.7-1.37,1.41-2,2.11s-1.32,1.42-2,2.17-1.46,1.41-2.12,2.11l-2,2.12,9.79,11.82ZM95.7,86.2a15.07,15.07,0,0,0,1.68,1.85,7.38,7.38,0,0,0,1.76,1.19,7.28,7.28,0,0,0,1.68.71,7.37,7.37,0,0,0,1.68.22,8.2,8.2,0,0,0,3.3-.71,17,17,0,0,0,2.83-1.68,17.41,17.41,0,0,0,2.56-2.24l-10-12a7.66,7.66,0,0,1-.7.44,7.32,7.32,0,0,0-.58.45,25,25,0,0,0-3,3.08,10.37,10.37,0,0,0-2,3.58,5.86,5.86,0,0,0-.22.92,3.55,3.55,0,0,0-.09,1,4.15,4.15,0,0,0,.31,1.63,11.54,11.54,0,0,0,.83,1.55Zm8-22.94a.52.52,0,0,0,.18-.13,1,1,0,0,0,.26-.13s.14-.09.18-.18.09,0,.18,0c1.1-.8,2.11-1.63,3.08-2.47a6.57,6.57,0,0,0,1.86-3.4v-1a4.46,4.46,0,0,0-1.55-3.53,6.18,6.18,0,0,0-3.26-1.59h-1.15A4.85,4.85,0,0,0,101,51.93a3.8,3.8,0,0,0-1.36,2.87,1.49,1.49,0,0,0,0,.22.66.66,0,0,0,0,.3s0,.09,0,.18a.73.73,0,0,0,0,.31,5.52,5.52,0,0,0,.93,3.09,30.39,30.39,0,0,0,2,2.78,5.49,5.49,0,0,1,.75.79l.66.79Zm104-4.72V61a51.47,51.47,0,0,1-3.31,18.57c-2.2,5.78-6.44,10.45-12.83,14a25.56,25.56,0,0,1-6.7,3,48.7,48.7,0,0,1-7.28,1.54c-.88,0-1.72.13-2.51.18s-1.64,0-2.43,0H171.3a7.4,7.4,0,0,1-1.41-.13,42.22,42.22,0,0,1-17.07-4.85,36.2,36.2,0,0,1-13.28-11.47,37.71,37.71,0,0,1-4-8.25,41.64,41.64,0,0,1-2-8.86c0-.58-.13-1.24-.17-1.86s-.05-1.32-.05-2a39.45,39.45,0,0,1,5.47-20,35.46,35.46,0,0,1,15.48-14.42,25.92,25.92,0,0,1,4.37-1.72c1.5-.49,3-.89,4.58-1.28a40.36,40.36,0,0,1,4.46-.67,38.46,38.46,0,0,1,4.36-.22h1.06a41.75,41.75,0,0,1,16.72,4,42.76,42.76,0,0,1,14,10.58L193.17,45A34.86,34.86,0,0,0,184,38.3,24.19,24.19,0,0,0,173.55,36a35.21,35.21,0,0,0-3.66.22c-1.28.18-2.56.4-3.88.71a21.06,21.06,0,0,0-12.27,9.39A28.38,28.38,0,0,0,149.64,61a10.21,10.21,0,0,0,.05,1.19c0,.4.13.79.17,1.19A2.89,2.89,0,0,0,150,64a2.44,2.44,0,0,1,.05.62,2.25,2.25,0,0,1,.17.57,2.57,2.57,0,0,1,.05.57c1,5.69,3.39,10.19,7.36,13.41A26.22,26.22,0,0,0,170.46,85a10.65,10.65,0,0,0,2,.31c.7,0,1.37,0,2,0a20.59,20.59,0,0,0,11.78-3.53,11.57,11.57,0,0,0,5.16-10.14l.22-.49h-18V58.54ZM71.58,104.94h2.78a3.74,3.74,0,0,1,3.57,3.88,3.8,3.8,0,0,1-3.57,3.88H71.58v-7.76Zm1.19.93v5.91h1.28a2.72,2.72,0,0,0,2.65-2.91,2.82,2.82,0,0,0-2.34-3l-1.59,0Zm9.84-1.11a4.07,4.07,0,1,1-4.28,4.06,4.15,4.15,0,0,1,4.28-4.06Zm0,1a3.07,3.07,0,1,1-3.09,3.09,3.11,3.11,0,0,1,3.09-3.09Zm4.63-.79h1.14v6.84h2.21v.92H87.24v-7.76Zm7.05-.22a4.61,4.61,0,0,1,2.43.71v1.41a3.11,3.11,0,1,0,0,3.92v1.46a4.6,4.6,0,0,1-2.43.7,4.1,4.1,0,1,1,0-8.2Zm4,7.06H101v.92h-4v-7.76h4v.88H98.26v2.3H101V109H98.26v2.74Zm7.15.39a1.52,1.52,0,0,1-.44.31,1.78,1.78,0,0,1-.49.18.17.17,0,0,0-.13,0h-.13c-.14,0-.22,0-.36,0a1.46,1.46,0,0,1-.35-.18,2,2,0,0,1-.26-.35c0-.13-.09-.26-.14-.4v-.22h0v-.09a1,1,0,0,1,.31-.57l.53-.4-.27-.39a.62.62,0,0,1-.13-.4v-.13h0v0a0,0,0,0,0,0,0,.69.69,0,0,1,.75-.57h.14a1,1,0,0,1,.57.22.77.77,0,0,1,.22.57.68.68,0,0,1-.18.53,1.89,1.89,0,0,1-.48.4l.84,1a2.7,2.7,0,0,1,.22-.31c.08-.09.13-.17.22-.26l.26.26c0,.09-.13.18-.17.27a1.72,1.72,0,0,1-.23.26l0,.05a0,0,0,0,1,0,0l.61.7h-.53l-.39-.44Zm-1,.14a.69.69,0,0,0,.4-.14c.09-.08.22-.17.31-.26h0l0,0-1-1.11h0s0,0,0,0h0l0,0c-.09,0-.13.09-.22.13a1.09,1.09,0,0,0-.18.22s0,0,0,.09a.16.16,0,0,0,0,.13.16.16,0,0,0,0,.09v.13a.71.71,0,0,0,.18.49.76.76,0,0,0,.53.18h.08Zm-.35-2.74v.05h0v0h0a.57.57,0,0,0,0,.26,1.68,1.68,0,0,0,.18.23l.09.08,0,0h0s0,0,0,0a.81.81,0,0,0,.27-.17.78.78,0,0,0,.17-.31h0v0h0v0a.4.4,0,0,0-.13-.31.73.73,0,0,0-.26-.09h-.09a.33.33,0,0,0-.27.09.24.24,0,0,0-.13.22Zm8.51-4.89a4.53,4.53,0,0,1,3.71,1.94l-1,.53a3.13,3.13,0,0,0-5.77,1.67,3.08,3.08,0,0,0,3.13,3.09c1.45,0,2.6-.71,2.69-2.21h-2.52v-.92h3.75v0c0,2.43-1.32,4.15-4,4.15a4.08,4.08,0,0,1-4.32-4.15,4.23,4.23,0,0,1,4.32-4.14Zm3.31,8,3.22-7.76h.75l3.22,7.76h-1.24l-.88-2.2h-3l-.89,2.2Zm2.56-3.17,1.06-2.78,1,2.78Zm15.92,3.17,3.17-7.76h.75l3.22,7.76h-1.23l-.88-2.2h-3l-.88,2.2Zm2.51-3.17,1.06-2.78,1.06,2.78Zm12.84,3.17,3.22-7.76h.75l3.22,7.76h-1.24l-.92-2.2H151.8l-.88,2.2Zm2.56-3.17,1-2.78,1.06,2.78Zm-26.42-3.71c.79.09,1.06.4,1.06,1.19a1.1,1.1,0,0,1-1.19,1.15h-1v-2.34Zm.09,3.27h0c.57,0,1.59.13,1.59,1.41,0,1-.88,1.28-1.72,1.28h-1.15v-2.69h1.24Zm-1.5,3.61h2a2.22,2.22,0,0,0,2.38-2.2,2.12,2.12,0,0,0-1.5-2.07,2,2,0,0,0-1.19-3.49c-.62,0-1.28,0-1.89,0h-.71v7.76Zm7.32-6.88c.75.09,1,.4,1.06,1.19a1.1,1.1,0,0,1-1.2,1.15h-1v-2.34Zm0,3.27h.05c.57,0,1.58.13,1.58,1.41,0,1-.88,1.28-1.72,1.28h-1.1v-2.69h1.19Zm-1.5,3.61h2a2.19,2.19,0,0,0,2.34-2.2,2.13,2.13,0,0,0-1.5-2.07,1.74,1.74,0,0,0,.79-1.59,1.82,1.82,0,0,0-1.94-1.9c-.66,0-1.28,0-1.94,0h-.7v7.76ZM142,104.94h.75l5.43,5.73v-5.73h1.06v7.76h-.8L143.12,107v5.69H142v-7.76Z"/></svg>