<svg id="Capa_1" data-name="Capa 1" xmlns="http://www.w3.org/2000/svg" viewBox="0 0 278.68 151.21"><defs><style>.cls-1{fill:none;}.cls-2{fill:#fff;fill-rule:evenodd;}</style></defs><title>louis-vuitton-LOGO</title><rect class="cls-1" x="33.43" y="33.79" width="208.65" height="73.53"/><path class="cls-2" d="M191.53,129.51H193v12.22l-8.83-9.25v8.8h-1.49V128.93l8.88,9.29v-8.71Zm-41.54,0V137a4.63,4.63,0,0,1-1.11,3.22,4,4,0,0,1-3.22,1.32,3.94,3.94,0,0,1-3.14-1.32,4.44,4.44,0,0,1-1.16-3.22v-7.47h1.49v7c0,2.43.91,3.67,2.81,3.67s2.89-1.24,2.89-3.67v-7Zm4.54,0h7.06v1.36h-2.8v10.41h-1.41V130.87h-2.85v-1.36Zm-2.56,0h1.49v11.77H152V129.51Zm-13,0h1.61l-5.12,12.43-5.12-12.43H132l3.51,8.71,3.51-8.71Zm41,5.9a4.6,4.6,0,0,1-1.41,3.39,4.34,4.34,0,0,1-3.26,1.36,4.66,4.66,0,0,1-3.34-1.36,4.6,4.6,0,0,1-1.41-3.39,4.66,4.66,0,0,1,4.75-4.75,4.33,4.33,0,0,1,3.35,1.41,4.7,4.7,0,0,1,1.32,3.34Zm-.33-4.33a6.13,6.13,0,0,0-8.72,0,6.14,6.14,0,0,0,0,8.71,6,6,0,0,0,4.38,1.73,6.1,6.1,0,0,0,4.34-10.44Zm-10.86-1.57v1.36H166v10.41h-1.49V130.87h-2.8v-1.36Zm-68.3,2.56a4.63,4.63,0,0,1,1.28,3.34,4.71,4.71,0,0,1-1.36,3.39,4.51,4.51,0,0,1-3.3,1.36,4.69,4.69,0,0,1-3.35-1.36,4.93,4.93,0,0,1-1.36-3.39,4.66,4.66,0,0,1,1.32-3.34,4.46,4.46,0,0,1,3.39-1.41,4.38,4.38,0,0,1,3.38,1.41Zm1-1a6,6,0,0,0-4.33-1.82,6.13,6.13,0,1,0,4.33,10.53,6.12,6.12,0,0,0,0-8.71Zm4.5,5.41c0,2.43,1,3.67,2.85,3.67s2.85-1.24,2.85-3.67v-7H113V137a4.48,4.48,0,0,1-1.16,3.22,3.94,3.94,0,0,1-3.14,1.32,3.9,3.9,0,0,1-3.14-1.32,4.34,4.34,0,0,1-1.19-3.22v-7.47h1.48v7Zm-18.74-7V140h3.59v1.32h-5V129.51Zm35.38,4.83c2,.78,2.94,1.94,2.94,3.51a3.47,3.47,0,0,1-1.12,2.64,3.52,3.52,0,0,1-2.6,1,3.42,3.42,0,0,1-2.48-1,3.82,3.82,0,0,1-1.2-2.35l1.49-.33a2.19,2.19,0,0,0,2.27,2.27,2.14,2.14,0,0,0,1.57-.7,2.33,2.33,0,0,0,.58-1.61c0-.91-.66-1.65-2-2.23l-.83-.29c-1.65-.78-2.52-1.77-2.52-3a2.79,2.79,0,0,1,1-2.23,3.65,3.65,0,0,1,2.44-.83,3.23,3.23,0,0,1,3,1.82l-1.15.66a2.17,2.17,0,0,0-1.9-1.08,2.2,2.2,0,0,0-1.36.42,1.5,1.5,0,0,0-.62,1.24c0,.7.53,1.24,1.69,1.65l.78.37ZM115,129.51h1.49v11.77H115V129.51Z"/><path class="cls-2" d="M173,23.13,144.52,90.35l-7.85-17.24,14.51-39.5c1.09-3.06,4.91-4.48,11.35-4.48l2.29-6H131l-2.18,6c4.8,0,6.76,1.42,6,4.48l-7.2,20.08L113.42,23.13c-2.62-3.27-1.31-4.91,3.82-4.91V11.13H84.51v7.09c6.11,0,9.93,1.64,11.56,4.91l24,51.07-11.24,30c-.22,4-6.55,6-18.77,6l-2.29,6h93.4l13-27.61H187.4c-6.32,14.3-13.64,21.61-21.82,21.61H122.7L129,93.29l5.45,10.92H146.7l34.48-81.08c1.64-4.91,5.9-7.53,12.55-7.53V9.28H165.58V15.6c8.51,0,10.91,2.62,7.42,7.53Z"/></svg>