<svg id="Capa_1" data-name="Capa 1" xmlns="http://www.w3.org/2000/svg" viewBox="0 0 278.68 151.21"><defs><style>.cls-1{fill:#fff;}</style></defs><title>alexander-mcqueen-LOGO</title><path class="cls-1" d="M136,61.44a1.46,1.46,0,0,0-.14.63,1.38,1.38,0,1,0,2.76,0,1.46,1.46,0,0,0-.72-1.27"/><path class="cls-1" d="M154.12,69.18l-1.7.71v.59h5.15v-.59L156,69.18V63.66a8.82,8.82,0,0,0-.22-2.22,2.38,2.38,0,0,0-1-1.28,3.66,3.66,0,0,0-2-.56,4.14,4.14,0,0,0-2,.54,6.4,6.4,0,0,0-1.78,1.54V59.6h-.72l-2.77.59v.58h.22A1.41,1.41,0,0,1,147,62.21c.05.26.05,6.72,0,7l-1.59.72v.59h5.09v-.59l-1.6-.72V62.65a5.66,5.66,0,0,1,1.47-1.58,3,3,0,0,1,1.72-.55,2,2,0,0,1,1.29.41,1.94,1.94,0,0,1,.71,1.53v6.72"/><path class="cls-1" d="M142,63.83c0,.44-1.47,1.41-2.73,1.82-2.58.86-2,3.16-1.38,3.68a1.42,1.42,0,0,0,1.06.4,4.5,4.5,0,0,0,1.58-.56,6.27,6.27,0,0,0,1.47-1V61.77a1.51,1.51,0,0,0-.84-1.21,2.54,2.54,0,0,0-1.48-.39c-1.23,0-1.92.43-2.06,1.28s-.47,1.31-1,1.31a.66.66,0,0,1-.75-.74,2.23,2.23,0,0,1,1-1.57,4.71,4.71,0,0,1,3.09-.84,4.94,4.94,0,0,1,2.47.59,2.6,2.6,0,0,1,1.13,1.16,5.31,5.31,0,0,1,.28,2v5.1a1.42,1.42,0,0,0,1.38,1.44v.59a4.06,4.06,0,0,1-1.24.27,1.81,1.81,0,0,1-1.32-.46,2.29,2.29,0,0,1-.64-1.36,12.08,12.08,0,0,1-2.24,1.36,4.39,4.39,0,0,1-1.81.46,2.87,2.87,0,0,1-1.84-.61,2.51,2.51,0,0,1-.74-1.86c0-1.37.63-2.61,3.48-3.24,1.59-.36,3.16-1.77,3.16-2.62"/><path class="cls-1" d="M134.23,69.43l-4.88-5.09,3-3.1a3.52,3.52,0,0,1,2.36-1.08V59.6h-3.76v.55a.7.7,0,0,1,.69.71.74.74,0,0,1-.15.45L129,63.92l-2.47-2.57a.7.7,0,0,1-.18-.48.71.71,0,0,1,.69-.72h0v-.57h-4.39v.56a1.27,1.27,0,0,1,.88.36l4.35,4.54-4.28,4.42-1,.41v.58h3.65v-.58l-1.58-.73h0l3.56-3.69,3.55,3.69h0l-1.7.73v.58h5.15v-.58l-1-.46"/><path class="cls-1" d="M112.84,70.47v-.58l-1.58-.71V52.92h-.72l-2.76.59v.58H108a1.43,1.43,0,0,1,1.39,1.45h0V69.18l-1.58.71v.59h5"/><path class="cls-1" d="M186.52,60.53a1.47,1.47,0,0,0-.19.73,1.39,1.39,0,1,0,2.77,0,1.58,1.58,0,0,0-.12-.58,1.92,1.92,0,0,0-.36-.56,1.63,1.63,0,0,0-1.28-.53,2.93,2.93,0,0,0-1.83.77,4.31,4.31,0,0,0-1.19,1.52V59.59h-.73l-2.77.59v.59H181a1.4,1.4,0,0,1,1.38,1.44v7l-1.59.7v.59h5.09v-.59l-1.6-.72c0-.29-.07-1.16-.07-2.28V65a9.28,9.28,0,0,1,.2-2.21,3.55,3.55,0,0,1,1-1.55,2.37,2.37,0,0,1,1.12-.73"/><path class="cls-1" d="M145.16,70.48h.28v-.59h-.28Z"/><path class="cls-1" d="M95.66,63.51l2.94-7.37,2.89,7.37Zm10.59,5.67h0L99.89,52.92h-.65L92.92,68.77l-.56.4-1.59.72v.58h5.09v-.58l-1.6-.73c-.39-.17-.53-.36-.53-.69a.67.67,0,0,1,.06-.28l1.64-4.1h6.28l2,5.09-1.69.71v.58h5.82v-.58l-1.58-.71"/><path class="cls-1" d="M120.38,63c0,.19,0,.28-.06.48h-4.81l0-.47c.29-1.92,1.17-2.88,2.67-2.88a2.1,2.1,0,0,1,1.55.62,2.32,2.32,0,0,1,.63,1.74A4.53,4.53,0,0,1,120.38,63Zm-2-3.44a4.42,4.42,0,0,0-3.51,1.64,6.11,6.11,0,0,0-1.4,4.11,5.8,5.8,0,0,0,.73,3A5.11,5.11,0,0,0,116,70.22a4.69,4.69,0,0,0,5-.06,3.55,3.55,0,0,0,1.56-2h-.59a3.24,3.24,0,0,1-3.17,2.08,2.71,2.71,0,0,1-2.48-1.39,8.24,8.24,0,0,1-.82-4.14c0-.15,0-.35,0-.59H122l.55-.57a4.36,4.36,0,0,0-1.14-2.67,3.8,3.8,0,0,0-3.06-1.25"/><path class="cls-1" d="M177.71,63c0,.19,0,.28-.06.48h-4.8l0-.47q.44-2.88,2.67-2.88a2.1,2.1,0,0,1,1.55.62,2.33,2.33,0,0,1,.64,1.74A5.13,5.13,0,0,1,177.71,63Zm-2.05-3.44a4.38,4.38,0,0,0-3.5,1.64,6.07,6.07,0,0,0-1.41,4.11,5.8,5.8,0,0,0,.73,3,5.11,5.11,0,0,0,1.86,1.89,4.69,4.69,0,0,0,5-.06,3.52,3.52,0,0,0,1.56-2h-.59a3.24,3.24,0,0,1-3.17,2.08,2.71,2.71,0,0,1-2.48-1.39,8.23,8.23,0,0,1-.83-4.14c0-.15,0-.35,0-.59h6.5l.55-.57a4.36,4.36,0,0,0-1.14-2.67,3.8,3.8,0,0,0-3.06-1.25"/><path class="cls-1" d="M166.69,68.29a5,5,0,0,1-1.49,1.38,3.47,3.47,0,0,1-1.73.46,2.89,2.89,0,0,1-2.35-1.22,6,6,0,0,1-1-3.76,5.65,5.65,0,0,1,.93-3.63,2.9,2.9,0,0,1,2.32-1.11,3.91,3.91,0,0,1,1.64.37,6.17,6.17,0,0,1,1.64,1.09Zm3.43,1.59-1.57-.72V52.92h-.72l-2.77.59v.58h.22a1.43,1.43,0,0,1,1.4,1.45h0v5.59A11,11,0,0,0,165,60,4.85,4.85,0,0,0,163,59.6a4.55,4.55,0,0,0-3.46,1.57,6.42,6.42,0,0,0,0,8.09A4.41,4.41,0,0,0,162.93,71a4.46,4.46,0,0,0,2-.48,7,7,0,0,0,1.76-1.31v.73l.56.58h2.87v-.59"/><path class="cls-1" d="M109.12,91.68a3,3,0,0,1-2.7-1.39,7.14,7.14,0,0,1-.89-3.85,6.31,6.31,0,0,1,.83-3.58,2.83,2.83,0,0,1,2.48-1.19,1.88,1.88,0,0,1,1.24.3,2,2,0,0,1,.45,1c.13.66.46,1,1,1a.66.66,0,0,0,.58-.28.94.94,0,0,0,.2-.6,1.68,1.68,0,0,0-1.09-1.44,4.91,4.91,0,0,0-2.4-.6,5.06,5.06,0,0,0-3.74,1.6,5.63,5.63,0,0,0-1.59,4.16,5.53,5.53,0,0,0,1.47,4,4.84,4.84,0,0,0,3.62,1.52,3.88,3.88,0,0,0,4.18-3h-.54a2.92,2.92,0,0,1-3.1,2.3"/><path class="cls-1" d="M111,84.67a1.44,1.44,0,1,0-1.39-1.43A1.41,1.41,0,0,0,111,84.67"/><path class="cls-1" d="M102,75h1.48v-.58H98.3L92.74,88.66l-5.6-14.27H82.07V75h1.34A1.41,1.41,0,0,1,84.8,76.4V88.24a2.91,2.91,0,0,1-1.6,2.61l-1.09.5v.59H88v-.59L87,90.85a2.88,2.88,0,0,1-1.6-2.61V76.32l6.11,15.62h.7l6.07-15.51V90.64l-1.59.72H95.53v.58h8v-.58h-1.26l-1.6-.72V76.4A1.41,1.41,0,0,1,102,75"/><path class="cls-1" d="M148.76,75a1.41,1.41,0,0,0-1.38,1.43v8a28.4,28.4,0,0,1-.13,3.47,4.57,4.57,0,0,1-1,2.1,5.45,5.45,0,0,1-2.24,1.65,9.3,9.3,0,0,1-7.09-.17,4.86,4.86,0,0,1-2.2-2,8.17,8.17,0,0,1-.66-3.56V76.39A1.41,1.41,0,0,0,132.73,75h-.83v-.58h6.83V75h-.83a1.41,1.41,0,0,0-1.38,1.43v8a21.46,21.46,0,0,0,.25,4,3.54,3.54,0,0,0,1.42,2.08,5,5,0,0,0,3.11.88,6.28,6.28,0,0,0,2.77-.59,4.58,4.58,0,0,0,1.86-1.48,4.1,4.1,0,0,0,.74-1.83,23.64,23.64,0,0,0,.16-3v-8A1.41,1.41,0,0,0,145.44,75h-.83v-.57h5V75h-.83"/><path class="cls-1" d="M189.09,74.38V75h1.34a1.41,1.41,0,0,1,1.38,1.43V87.87L182,74.38h-4.71V75h1.29A1.41,1.41,0,0,1,180,76.39V88.24a2.89,2.89,0,0,1-1.6,2.61l-1.07.51v.58h5.92v-.59l-1.08-.5a2.88,2.88,0,0,1-1.61-2.61V76.39L191.8,91.93h.57V76.39A1.41,1.41,0,0,1,193.75,75h1.34v-.57h-6"/><path class="cls-1" d="M161.39,74.38l.38,4.23h-.56A5.85,5.85,0,0,0,160,76,2.7,2.7,0,0,0,157.85,75h-3.66v7.41h2.94a1.42,1.42,0,0,0,1.37-1.46v-.86h.56v5.23h-.56v-.92A1.39,1.39,0,0,0,157.13,83h-2.94v7.69l1.6.72h2.72l1.59-.71a5.75,5.75,0,0,0,2.77-3.92h.56L163,91.94H150.19v-.58l1.6-.72V76.39A1.41,1.41,0,0,0,150.41,75h-.83v-.58h6.84"/><path class="cls-1" d="M175.24,74.38l.38,4.23h-.56a5.94,5.94,0,0,0-1.2-2.58A2.72,2.72,0,0,0,171.7,75H168v7.41H171a1.43,1.43,0,0,0,1.38-1.46v-.86h.55v5.23h-.55v-.92A1.39,1.39,0,0,0,171,83H168v7.69l1.6.72h2.72l1.59-.71a5.77,5.77,0,0,0,2.78-3.92h.56l-.47,5.22H164v-.58l1.61-.72V76.39A1.41,1.41,0,0,0,164.26,75h-.83v-.58h6.84"/><path class="cls-1" d="M123,91.61a5.69,5.69,0,0,1-4.82-2.1q-1.6-2.08-1.6-6.26c0-2.74.53-4.82,1.6-6.22a6.15,6.15,0,0,1,9.29.06A10.18,10.18,0,0,1,129,83.27q0,4.16-1.64,6.25A5.33,5.33,0,0,1,123,91.61Zm10.69,4.46a13.53,13.53,0,0,1-4.33-1A18.91,18.91,0,0,0,123,93.82l-.66,0,3.67-2.1a7.87,7.87,0,0,0,4.32-3.22,9.44,9.44,0,0,0,1.5-5.29,9.64,9.64,0,0,0-1.15-4.67,7.36,7.36,0,0,0-3.37-3.2,10.42,10.42,0,0,0-4.6-1.08,9,9,0,0,0-6.45,2.44,8.41,8.41,0,0,0-2.58,6.42,8.83,8.83,0,0,0,2.54,6.61,9,9,0,0,0,6.56,2.48,12,12,0,0,0,1.24-.06l-2.27,1.35-.62.34c-1,.49-1.64.85-2,1.07s-.53.45-.53.66.15.42.45.42.53-.21,1-.64a3.47,3.47,0,0,1,2.28-1,9.57,9.57,0,0,1,4.92,2,17.25,17.25,0,0,0,2.67,1.5,6,6,0,0,0,2.28.42,4.31,4.31,0,0,0,4.52-4h-.51c-.28,1.15-1.16,1.73-2.63,1.73"/></svg>