<svg id="Capa_1" data-name="Capa 1" xmlns="http://www.w3.org/2000/svg" viewBox="0 0 278.68 151.21"><defs><style>.cls-1{fill:#fff;fill-rule:evenodd;}</style></defs><title>valentino-LOGO</title><path class="cls-1" d="M55.37,61.86l.06.62H52.34l5.88,21.19c1.52-5.1,4.39-13.88,5.81-19.06a1.52,1.52,0,0,0-.7-1.77,6.12,6.12,0,0,0-2-.17l-.08-.81h7.09v.62c-1,0-2.64.21-3,1.16-3,8.13-6.28,19.12-8.43,26.07h-.34L48.46,62.48h-2.6l-.06-.62ZM77.93,80.48l-6.87-.07c-.7,2.09-1.33,4.63-1.79,6.68-.17.8-.07,1.08.19,1.43s1.81.13,2.76.19l-.06.6H65.63l-.06-.6c.61-.06,2.15.17,2.36-.44,2.24-6.27,5.62-19.52,7.86-26.81h.38L84,88.71h2.47v.6H77.19v-.6h3.12l-2.38-8.23ZM74.55,68.05,71.23,80h6.59l-3.27-11.9Zm16.62-5.38H87.94v-.81h9.8v.81H94.47V88.78c1.62,0,3.31-.09,4.94,0,6.19.16,7.4-2.39,7.37-8.2l.47-.06-.06,8.83H87.9v-.53h3.27V62.67Zm21.11.08h-2.83V62h17.3l.46,6.86-.44-.06c-.28-2.24-.38-2.89-1.33-4.16s-2.68-1.69-4.56-1.71l-5.2-.07-.07,12.51c.91,0,1.84,0,2.75-.08A4.15,4.15,0,0,0,121.13,74c.48-.7.57-1.94.65-3.7h.49l.06,10.21h-.67s0-.11,0-.19c0-1.23.14-2.26-.6-3.36a3.92,3.92,0,0,0-3.14-1.16l-2.29.06.07,12.95c3.1,0,8.51.53,10.86-1.84,1-1,1.24-3.12,1.24-5.36l.64,0,0,7.65H109.51l-.06-.55h2.83v-26Zm37.56.06c-.4-.38-2.05-.23-2.83-.23l.06-.72,6.76,0v.57c-2.26.06-3-.24-3.08,2-.21,6.34-.05,20.2-.07,25.21l-.59,0L134.52,63.66c0,3.87-.15,17.51-.15,22.94,0,2.73,1.46,2.05,3.43,2v.7h-7.17v-.57c3.26-.09,3.24.1,3.28-3.91.06-7.12.11-14.68.13-22.33l-3.24,0v-.68l6.93,0,12.4,20.64c0-2.07.07-14,0-18.4a2.3,2.3,0,0,0-.31-1.34Zm56.66,0c-.41-.38-2.05-.24-2.83-.26l.06-.69,6.76,0v.57c-2.26,0-3-.26-3.09,2-.21,6.36,0,20.2-.06,25.21l-.59,0L191.18,63.66c0,3.89-.15,17.51-.15,22.94,0,2.73,1.46,2.05,3.42,2v.7h-7.16v-.57c3.26-.09,3.26.1,3.28-3.89.06-7.14.1-14.68.12-22.33-1.58,0-2.42,0-3.23,0v-.65l6.93,0,12.4,20.62c0-2.07.07-14,0-18.38a2.22,2.22,0,0,0-.31-1.33Zm-43.08-.24c-2.93-.06-5.58.17-6.59,1.42s-.93,3-1.18,5.81l-.47.06,0-8h19.86l.11,8.1h-.53c-.27-3.17-.21-4.95-1.29-6s-4.16-1.44-6.55-1.44l-.06,26.13,3.25.07v.59H160v-.59h3.32l.06-26.14Zm16.46.07H177v-.81h9.08v.81h-2.92v26H186v.66h-9.14v-.66h3v-26ZM222.53,62a4.47,4.47,0,0,0-.87.08,7.62,7.62,0,0,0-.9.26c-1.19.46-2.29,1.64-3.28,3.57S216,71,216,75.53s.49,7.67,1.46,9.61,2.07,3.13,3.23,3.62a4.7,4.7,0,0,0,.93.29,3.9,3.9,0,0,0,.91.09,4.13,4.13,0,0,0,.91-.09,4.31,4.31,0,0,0,.95-.29,7.42,7.42,0,0,0,3.21-3.66q1.49-2.91,1.48-9.57c0-4.1-.42-7.07-1.25-9a8.55,8.55,0,0,0-2.72-3.84,3.91,3.91,0,0,0-1.35-.61,5.33,5.33,0,0,0-1.23-.15ZM212.28,75.6q0-6,2.79-9.68c1.86-2.45,3.89-3.89,6.13-4.33.23,0,.46-.06.7-.08a2.94,2.94,0,0,1,.65,0c2.66,0,5,1.31,7.16,4a15.79,15.79,0,0,1,3.17,10.17q0,5.82-2.53,9.33a11,11,0,0,1-5.56,4.44,4.66,4.66,0,0,1-1.12.3,6.87,6.87,0,0,1-1.12.08,6.44,6.44,0,0,1-1.73-.23,9.23,9.23,0,0,1-1.92-.72,13.54,13.54,0,0,1-4.55-4.61,15.44,15.44,0,0,1-2.07-8.59Z"/></svg>