<svg id="Capa_1" data-name="Capa 1" xmlns="http://www.w3.org/2000/svg" viewBox="0 0 278.68 151.21"><defs><style>.cls-1{fill:none;}.cls-2{fill:#fff;}</style></defs><title>asics-LOGO</title><rect class="cls-1" x="33.43" y="33.79" width="208.65" height="73.53"/><path class="cls-2" d="M93.08,39.91C83,39.92,71.81,46.11,64.81,52l.55.8c10.87-7.62,26-12.58,30.11-5.15,2.19,3.93-1.54,11.84-6.78,18.1,1.25-2.76.43-8.07-6.89-8.07-12.17,0-36.12,16.12-36.12,32.61,0,6.61,4.58,10.92,12.13,10.92,20.21,0,47.62-33.13,47.62-49.76C105.43,45.55,102,39.91,93.08,39.91ZM64.73,83.37c-3.5,0-5.18-2.69-4.3-5.8,1.81-6.44,13.45-16,21.38-16,5.79,0,5.35,5.17,2,9.59L81.9,73.24C75.17,79.85,68.94,83.37,64.73,83.37Z"/><path class="cls-2" d="M137.79,57.4a9.52,9.52,0,0,0-7-3.31H119l-2,7.48h11.15l1.06.11a2.5,2.5,0,0,1,1.59.88,3.34,3.34,0,0,1,.2,2.82l-.53,2h-7c-6,0-14.47,4.33-16.35,11.34a9.5,9.5,0,0,0,1.7,8.74c1.8,2.21,5.2,3.42,8.87,3.42h14.76l3.88-14.47,2.86-10.65C140.23,61.55,139,58.89,137.79,57.4Zm-18.69,26a3.49,3.49,0,0,1-2.77-1.16,3.38,3.38,0,0,1-.52-3,6.49,6.49,0,0,1,6.12-4.45h6.5l-2.32,8.66Z"/><path class="cls-2" d="M219,54.09a14.3,14.3,0,0,0-8.58,2.74,11.85,11.85,0,0,0-4.59,7c-1.74,6.49,3.36,9.62,7.46,11.84,2.94,1.59,5.48,3,4.93,5-.39,1.46-1,2.73-4.64,2.73h-11l-2,7.48h12.21a14,14,0,0,0,8.74-2.55,13.6,13.6,0,0,0,4.67-7.68,8.46,8.46,0,0,0-1.69-8.1,22,22,0,0,0-6-4.19c-2.64-1.43-5.14-2.77-4.7-4.4a3.3,3.3,0,0,1,3.38-2.36h10.73l2-7.48Z"/><path class="cls-2" d="M154.93,54.09a14.31,14.31,0,0,0-8.59,2.74,11.89,11.89,0,0,0-4.59,7c-1.74,6.49,3.37,9.62,7.46,11.84,2.94,1.59,5.48,3,4.93,5-.39,1.46-1,2.73-4.64,2.73h-11l-2,7.48h12.22a14,14,0,0,0,8.73-2.55,13.55,13.55,0,0,0,4.67-7.68,8.46,8.46,0,0,0-1.68-8.1,22,22,0,0,0-6.05-4.19c-2.64-1.43-5.13-2.77-4.69-4.4A3.29,3.29,0,0,1,153,61.57h10.73l2-7.48Z"/><path class="cls-2" d="M171.59,54.09,162,90.85h8.1l9.57-36.76Z"/><path class="cls-2" d="M201.21,54.09c-14.24,0-21.7,9.54-24.07,18.38-2.8,10.48,2.78,18.38,13,18.38H197l2-7.48h-6.83c-3.82,0-9.07-3-7-10.9a15.16,15.16,0,0,1,14.52-10.9H204l2-7.48Z"/></svg>